<svg width="38" height="38" viewBox="0 0 38 38" fill="none" xmlns="http://www.w3.org/2000/svg">
<path d="M38 25.4707C38 32.3905 32.3905 38 25.4707 38L4.48034 38C2.5582 38 0.999998 36.4418 0.999998 34.5197L0.999997 20.5L1 7.96069C1 4.11641 4.11641 1 7.96069 1L34.5197 1C36.4418 1 38 2.55821 38 4.48035L38 25.4707Z" fill="#E8F5E9"/>
<path d="M20.0657 14.0699C19.8447 14.0699 19.665 13.8958 19.665 13.681V13.0201C19.665 12.8056 19.8444 12.6312 20.0657 12.6312C20.2867 12.6312 20.4664 12.8053 20.4664 13.0201V13.681C20.4664 13.8958 20.2867 14.0699 20.0657 14.0699Z" fill="#103E13"/>
<path d="M18.3812 14.0699C18.1601 14.0699 17.9805 13.8958 17.9805 13.681V13.0201C17.9805 12.8056 18.1599 12.6312 18.3812 12.6312C18.6022 12.6312 18.7818 12.8053 18.7818 13.0201V13.681C18.7816 13.8958 18.6025 14.0699 18.3812 14.0699Z" fill="#103E13"/>
<path d="M16.6967 14.0699C16.4757 14.0699 16.296 13.8958 16.296 13.681V13.0201C16.296 12.8056 16.4754 12.6312 16.6967 12.6312C16.9177 12.6312 17.0974 12.8053 17.0974 13.0201V13.681C17.0974 13.8958 16.918 14.0699 16.6967 14.0699Z" fill="#103E13"/>
<path d="M20.0657 16.7727C19.8447 16.7727 19.665 16.5986 19.665 16.3838V15.7231C19.665 15.5086 19.8444 15.3342 20.0657 15.3342C20.2867 15.3342 20.4664 15.5083 20.4664 15.7231V16.3838C20.4664 16.5986 20.2867 16.7727 20.0657 16.7727Z" fill="#103E13"/>
<path d="M18.3812 16.7727C18.1601 16.7727 17.9805 16.5986 17.9805 16.3838V15.7231C17.9805 15.5086 18.1599 15.3342 18.3812 15.3342C18.6022 15.3342 18.7818 15.5083 18.7818 15.7231V16.3838C18.7816 16.5986 18.6025 16.7727 18.3812 16.7727Z" fill="#103E13"/>
<path d="M16.6967 16.7727C16.4757 16.7727 16.296 16.5986 16.296 16.3838V15.7231C16.296 15.5086 16.4754 15.3342 16.6967 15.3342C16.9177 15.3342 17.0974 15.5083 17.0974 15.7231V16.3838C17.0974 16.5986 16.918 16.7727 16.6967 16.7727Z" fill="#103E13"/>
<path d="M20.0657 19.4755C19.8447 19.4755 19.665 19.3013 19.665 19.0866V18.4256C19.665 18.2111 19.8444 18.0367 20.0657 18.0367C20.2867 18.0367 20.4664 18.2109 20.4664 18.4256V19.0866C20.4664 19.3013 20.2867 19.4755 20.0657 19.4755Z" fill="#103E13"/>
<path d="M18.3812 19.4755C18.1601 19.4755 17.9805 19.3013 17.9805 19.0866V18.4256C17.9805 18.2111 18.1599 18.0367 18.3812 18.0367C18.6022 18.0367 18.7818 18.2109 18.7818 18.4256V19.0866C18.7816 19.3013 18.6025 19.4755 18.3812 19.4755Z" fill="#103E13"/>
<path d="M16.6967 19.4755C16.4757 19.4755 16.296 19.3013 16.296 19.0866V18.4256C16.296 18.2111 16.4754 18.0367 16.6967 18.0367C16.9177 18.0367 17.0974 18.2109 17.0974 18.4256V19.0866C17.0974 19.3013 16.918 19.4755 16.6967 19.4755Z" fill="#103E13"/>
<path d="M20.0657 22.1776C19.8447 22.1776 19.665 22.0035 19.665 21.7887V21.1278C19.665 20.9133 19.8444 20.7389 20.0657 20.7389C20.2867 20.7389 20.4664 20.913 20.4664 21.1278V21.7887C20.4664 22.0035 20.2867 22.1776 20.0657 22.1776Z" fill="#103E13"/>
<path d="M18.3812 22.1776C18.1601 22.1776 17.9805 22.0035 17.9805 21.7887V21.1278C17.9805 20.9133 18.1599 20.7389 18.3812 20.7389C18.6022 20.7389 18.7818 20.913 18.7818 21.1278V21.7887C18.7816 22.0035 18.6025 22.1776 18.3812 22.1776Z" fill="#103E13"/>
<path d="M16.6967 22.1776C16.4757 22.1776 16.296 22.0035 16.296 21.7887V21.1278C16.296 20.9133 16.4754 20.7389 16.6967 20.7389C16.9177 20.7389 17.0974 20.913 17.0974 21.1278V21.7887C17.0974 22.0035 16.918 22.1776 16.6967 22.1776Z" fill="#103E13"/>
<path d="M20.0657 24.8802C19.8447 24.8802 19.665 24.7061 19.665 24.4913V23.8307C19.665 23.6162 19.8444 23.4418 20.0657 23.4418C20.2867 23.4418 20.4664 23.6159 20.4664 23.8307V24.4913C20.4664 24.7058 20.2867 24.8802 20.0657 24.8802Z" fill="#103E13"/>
<path d="M18.3812 24.8802C18.1601 24.8802 17.9805 24.7061 17.9805 24.4913V23.8307C17.9805 23.6162 18.1599 23.4418 18.3812 23.4418C18.6022 23.4418 18.7818 23.6159 18.7818 23.8307V24.4913C18.7816 24.7058 18.6025 24.8802 18.3812 24.8802Z" fill="#103E13"/>
<path d="M16.6967 24.8802C16.4757 24.8802 16.296 24.7061 16.296 24.4913L16.2963 23.8307C16.2963 23.6162 16.4757 23.4418 16.697 23.4418C16.918 23.4418 17.0977 23.6159 17.0977 23.8307V24.4913C17.0974 24.7058 16.918 24.8802 16.6967 24.8802V24.8802Z" fill="#103E13"/>
<path d="M5.25034 27.5699C5.25034 27.7844 5.42972 27.9588 5.65102 27.9588H30.0515C30.2725 27.9588 30.4522 27.7847 30.4522 27.5699C30.4522 27.3554 30.2728 27.181 30.0515 27.181H29.3108V16.0151C29.3108 15.8006 29.1314 15.6262 28.9101 15.6262L22.3682 15.6265V7.57646C22.3682 7.44032 22.295 7.31449 22.1754 7.24397C22.0561 7.17319 21.9068 7.16885 21.7828 7.2315L14.345 10.99C14.2123 11.057 14.1296 11.1899 14.1296 11.335V18.3665H6.9315C6.71048 18.3665 6.53081 18.5407 6.53081 18.7555V27.1811H5.65013C5.42911 27.1808 5.25 27.3549 5.25 27.5697L5.25034 27.5699ZM22.3683 21.5165H28.5098V27.1813L22.3683 27.1811V21.5165ZM22.3683 18.814H28.5098V20.739L22.3683 20.7387V18.814ZM22.3683 16.4039H28.5098V18.0368H22.3683V16.4039ZM14.9306 11.5712L21.5667 8.2175V27.1807H14.9306V11.5712ZM9.31291 24.0749C9.31291 23.2678 9.97177 22.611 10.7818 22.611C11.5918 22.611 12.251 23.2675 12.251 24.0749V27.1812H9.31291V24.0749ZM7.33216 19.1442H14.1295V27.181H13.0523V24.0748C13.0523 22.8389 12.0341 21.8333 10.7818 21.8333C9.53001 21.8333 8.51184 22.8386 8.51184 24.0748V27.181H7.33216V19.1442Z" fill="#103E13"/>
</svg>
