<svg width="36" height="35" viewBox="0 0 36 35" fill="none" xmlns="http://www.w3.org/2000/svg">
<path d="M35.6223 21.6865C35.6223 28.6062 30.0128 34.2157 23.0931 34.2157L4.29919 34.2157C2.37705 34.2157 0.81884 32.6575 0.81884 30.7353L0.818842 7.06898C0.818843 3.2247 3.93525 0.108293 7.77954 0.108293L32.142 0.108295C34.0641 0.108295 35.6223 1.6665 35.6223 3.58864L35.6223 21.6865Z" fill="#E8F5E9"/>
<path d="M17.821 7.17639C15.3352 7.17639 13.3115 9.21858 13.3115 11.715C13.3115 13.2943 14.1224 14.6887 15.347 15.5015C13.868 15.996 12.5882 16.9203 11.6495 18.1295C11.1305 17.7303 10.5507 17.4093 9.92554 17.1793C10.8735 16.4755 11.493 15.345 11.493 14.0744C11.493 11.9572 9.78057 10.2239 7.67613 10.2239C5.5717 10.2239 3.85931 11.9572 3.85931 14.0744C3.85931 15.3457 4.4793 16.4768 5.42805 17.1805C2.91623 18.1074 1.12231 20.5341 1.12231 23.3901V25.3963C1.12257 25.5492 1.18375 25.6958 1.29222 25.8035C1.40069 25.9114 1.54746 25.9716 1.7004 25.9711H10.5022C10.5235 25.9734 10.5448 25.9747 10.5662 25.9744H25.0763C25.0977 25.9747 25.1193 25.9734 25.1403 25.9711H33.9428C34.2592 25.9698 34.5155 25.713 34.5162 25.3963V23.3901C34.5162 20.5341 32.7254 18.1074 30.2149 17.1802C31.1636 16.4768 31.7836 15.3455 31.7836 14.0742C31.7836 11.9569 30.0713 10.2236 27.9668 10.2236C25.8624 10.2236 24.15 11.9569 24.15 14.0742C24.15 15.3447 24.7697 16.4754 25.7177 17.179C25.0913 17.4096 24.5111 17.7316 23.9914 18.1318C23.0532 16.9219 21.7752 15.9963 20.2962 15.5015C21.5205 14.6887 22.3317 13.2943 22.3317 11.715C22.3317 9.21858 20.307 7.17639 17.8212 7.17639H17.821ZM17.821 8.32794C19.6802 8.32794 21.179 9.8368 21.179 11.715C21.179 13.5785 19.7036 15.0727 17.865 15.0967C17.8503 15.0967 17.8359 15.0946 17.821 15.0946C17.8061 15.0946 17.792 15.0967 17.7771 15.0967C15.9385 15.073 14.464 13.5786 14.464 11.715C14.464 9.83653 15.9616 8.32794 17.8207 8.32794H17.821ZM7.6762 11.3754C9.15137 11.3754 10.3415 12.5727 10.3415 14.0744C10.3415 15.566 9.16676 16.7581 7.70548 16.7743C7.69571 16.7743 7.6862 16.7733 7.67618 16.7733C7.66641 16.7733 7.6569 16.7743 7.64688 16.7743C6.1856 16.7581 5.01089 15.5657 5.01089 14.0744C5.01089 12.5727 6.20099 11.3754 7.67616 11.3754H7.6762ZM27.9665 11.3754C29.4416 11.3754 30.6317 12.5727 30.6317 14.0744C30.6317 15.566 29.457 16.7581 27.9958 16.7743C27.986 16.7743 27.9765 16.7733 27.9665 16.7733C27.9567 16.7733 27.9472 16.7743 27.9371 16.7743C26.4759 16.7581 25.3012 15.5657 25.3012 14.0744C25.3012 12.5727 26.4913 11.3754 27.9664 11.3754H27.9665ZM17.7769 16.2482C17.7916 16.2484 17.806 16.2502 17.8209 16.2502C17.8355 16.2502 17.8499 16.2482 17.8648 16.2482C21.5521 16.2718 24.503 19.2481 24.503 22.9738L24.5028 24.8225H11.1395V22.9738C11.1395 19.2478 14.0896 16.2718 17.7764 16.2482H17.7769ZM7.63211 17.9272C7.64676 17.9274 7.66116 17.9292 7.67607 17.9292C7.69098 17.9292 7.70511 17.9272 7.72002 17.9272C8.96718 17.9372 10.1054 18.3672 11.0117 19.0867C10.3632 20.2342 9.98811 21.5586 9.98811 22.9742V24.8184H2.2734V23.3901C2.2734 20.3621 4.65414 17.9508 7.63198 17.9269L7.63211 17.9272ZM27.9224 17.9272C27.9373 17.9274 27.9514 17.9292 27.9663 17.9292C27.9812 17.9292 27.9954 17.9272 28.0103 17.9272C30.9881 17.9508 33.3689 20.3624 33.3689 23.3903V24.8184H25.6502L25.65 22.9742C25.65 21.5594 25.276 20.2359 24.6287 19.0887C25.5353 18.3683 26.6742 17.9372 27.9225 17.9272H27.9224Z" fill="#103E13"/>
</svg>
