<svg width="36" height="35" viewBox="0 0 36 35" fill="none" xmlns="http://www.w3.org/2000/svg">
<path d="M35.3822 22.1453C35.3822 29.065 29.7727 34.6746 22.8529 34.6746L4.05907 34.6746C2.13693 34.6746 0.578728 33.1164 0.578728 31.1942L0.57873 7.52785C0.57873 3.68356 3.69514 0.567155 7.53943 0.567155L31.9019 0.567157C33.824 0.567158 35.3822 2.12536 35.3822 4.0475L35.3822 22.1453Z" fill="#E8F5E9"/>
<path d="M20.4643 14.7483C20.2988 14.7483 20.1451 14.7014 20.0085 14.626V14.628C20.0085 14.8963 19.9073 15.1483 19.7236 15.3371C19.5399 15.5263 19.2955 15.6306 19.0354 15.6306C18.8674 15.6306 18.7118 15.5826 18.5738 15.5051C18.5598 15.7506 18.4646 15.9801 18.2947 16.1553C18.111 16.3446 17.8666 16.4489 17.6063 16.4489C17.0891 16.4489 16.6691 16.03 16.6388 15.505C16.4788 15.5941 16.2978 15.6408 16.1112 15.6285C15.6025 15.5941 15.204 15.1412 15.204 14.5971V10.0874L14.7056 10.977C14.5158 11.3173 14.1604 11.5286 13.7778 11.5286C13.5914 11.5286 13.4072 11.4782 13.2441 11.3819C13.041 11.2606 12.8957 11.0658 12.8353 10.8328C12.7746 10.5997 12.806 10.3559 12.9234 10.1469C12.9236 10.1469 14.5542 7.23766 14.6536 7.05895C14.6655 7.03209 14.6992 6.95415 14.7278 6.88773C14.7552 6.82432 14.7787 6.75924 14.8012 6.69382C15.2929 5.26349 16.5105 4.37501 17.979 4.37501C19.8859 4.37501 21.4372 6.10823 21.4372 8.23868L21.4374 13.7455C21.4374 14.0135 21.3363 14.2653 21.1528 14.4548C20.9691 14.644 20.7247 14.7483 20.4643 14.7483L20.4643 14.7483ZM17.979 4.90777C16.7172 4.90777 15.7115 5.64208 15.2886 6.87199C15.2615 6.95009 15.2334 7.02819 15.2005 7.10429C15.1051 7.32474 15.1051 7.32474 15.0782 7.35645L15.0746 7.35328C14.9415 7.61211 14.5459 8.31785 13.3711 10.4136C13.3229 10.4995 13.3101 10.5993 13.3347 10.6948C13.3596 10.7902 13.4194 10.8707 13.5022 10.9199C13.7591 11.0719 14.1109 10.9738 14.2573 10.7109L15.2387 8.96034C15.2973 8.85604 15.4159 8.8048 15.5296 8.83651C15.6427 8.86772 15.7212 8.97335 15.7212 9.09384V14.5973C15.7212 14.8569 15.9114 15.081 16.1451 15.0969C16.2799 15.1042 16.4056 15.0577 16.5 14.9605C16.5859 14.8721 16.6332 14.7543 16.6332 14.6283V11.029C16.6332 10.8818 16.749 10.7625 16.8918 10.7625C17.0347 10.7625 17.1505 10.8816 17.1505 11.029L17.1503 15.4464C17.1503 15.7054 17.3549 15.9162 17.6063 15.9162C17.7284 15.9162 17.8431 15.8674 17.9291 15.779C18.0149 15.6904 18.0622 15.5722 18.0622 15.4464V11.029C18.0622 10.8818 18.1779 10.7625 18.3209 10.7625C18.4638 10.7625 18.5796 10.8816 18.5796 11.029L18.5794 14.5869V14.6283C18.5794 14.8871 18.784 15.0979 19.0355 15.0979C19.1575 15.0979 19.2719 15.049 19.3584 14.9602C19.4442 14.8719 19.4915 14.7541 19.4915 14.6281V11.0288C19.4915 10.8816 19.6072 10.7623 19.7502 10.7623C19.893 10.7623 20.0088 10.8814 20.0088 11.0288L20.0085 13.7456C20.0085 14.0048 20.2131 14.2156 20.4643 14.2156C20.5866 14.2156 20.7009 14.1667 20.7868 14.0784C20.873 13.9896 20.9201 13.8715 20.9201 13.7456L20.9203 8.2388C20.9203 6.40228 19.6008 4.90783 17.979 4.90783L17.979 4.90777Z" fill="#103E13"/>
<path d="M10.3013 18.5757L14.0549 16.2557C14.5074 15.9757 15.0897 16.0947 15.38 16.5267C15.4859 16.6841 15.54 16.8675 15.5484 17.0543C15.6884 16.979 15.8406 16.9381 15.9956 16.9381C16.075 16.9381 16.1547 16.9483 16.2334 16.9685C16.4856 17.0334 16.6981 17.1958 16.8317 17.4254C16.9655 17.6554 17.0046 17.9249 16.9416 18.1844C16.8834 18.4245 16.7417 18.6267 16.5446 18.7653C16.6824 18.8491 16.8013 18.9634 16.8858 19.1089C17.0196 19.3389 17.0587 19.6083 16.9958 19.8681C16.9328 20.1276 16.7752 20.3465 16.552 20.4846L16.5507 20.4854C16.6861 20.569 16.8029 20.6822 16.8865 20.8255C17.0205 21.0555 17.0595 21.325 16.9965 21.5848C16.9333 21.8445 16.7757 22.0634 16.5528 22.2013L11.9697 25.0341C11.1143 25.5626 10.1254 25.7451 9.18567 25.5473C8.23749 25.3477 7.45222 24.7862 6.97475 23.9661C6.21913 22.6686 6.33237 21.1356 7.2697 19.9656C7.31263 19.9122 7.3549 19.8578 7.39329 19.8014C7.43394 19.7418 7.4814 19.6717 7.4976 19.6477C7.59462 19.4691 9.17777 16.5303 9.1776 16.5306C9.33747 16.2334 9.63712 16.0652 9.94616 16.0654C10.0903 16.0654 10.2366 16.1019 10.3715 16.179C10.5345 16.2728 10.6713 16.4095 10.7671 16.5742C10.9639 16.9121 10.9708 17.335 10.7855 17.6773L10.3013 18.5757ZM10.3238 16.8482C10.2736 16.7619 10.2046 16.6931 10.1202 16.6444C9.94578 16.5449 9.72614 16.6097 9.6301 16.7887C8.49727 18.8915 8.11111 19.608 7.96208 19.863L7.96548 19.8639C7.95301 19.9066 7.95301 19.9066 7.81663 20.1074C7.77031 20.1753 7.71993 20.2405 7.66859 20.3048C6.86259 21.3109 6.769 22.5771 7.41801 23.692C7.82003 24.3825 8.48446 24.856 9.28896 25.0252C10.1022 25.1956 10.9594 25.037 11.7034 24.5771L16.2869 21.7442C16.3916 21.6796 16.4654 21.5769 16.4949 21.4553C16.5244 21.3338 16.5061 21.2075 16.4432 21.0997C16.314 20.8777 16.0333 20.8048 15.8179 20.9385L13.5567 22.3361C13.4343 22.4119 13.2752 22.3711 13.2018 22.2448C13.1283 22.1187 13.168 21.9549 13.2904 21.8792L15.5517 20.4815L16.2861 20.0276C16.3908 19.9629 16.4648 19.8602 16.4943 19.7389C16.5237 19.6173 16.5054 19.4908 16.4426 19.3831C16.3132 19.161 16.0325 19.0887 15.8172 19.2219L12.8215 21.0735C12.6987 21.1494 12.5402 21.1084 12.4666 20.9822C12.3931 20.856 12.4329 20.6923 12.5552 20.6166L16.2319 18.3441C16.3365 18.2794 16.4104 18.1769 16.4398 18.0553C16.4693 17.9338 16.451 17.8075 16.3883 17.6996C16.3256 17.592 16.226 17.5159 16.108 17.4855C15.9892 17.4552 15.8671 17.474 15.7628 17.5384L15.0822 17.9592C15.082 17.9592 15.082 17.9593 15.0819 17.9593H15.0817L12.0862 19.8109C11.9634 19.887 11.8047 19.8459 11.7313 19.7196C11.6577 19.5934 11.6976 19.4297 11.8199 19.354L14.8156 17.5024C14.9202 17.4376 14.9942 17.335 15.0237 17.2137C15.0561 17.0805 15.0315 16.9443 14.9547 16.8302C14.8216 16.6318 14.5368 16.579 14.3209 16.7127L9.74066 19.5437C9.6404 19.6055 9.51196 19.5904 9.42789 19.5068C9.34367 19.4231 9.32471 19.2914 9.3814 19.1861L10.3338 17.4181C10.4294 17.2414 10.4257 17.0231 10.3238 16.8482L10.3238 16.8482Z" fill="#103E13"/>
<path d="M28.2375 23.9659C27.7601 24.7861 26.9751 25.3475 26.0267 25.5471C25.0868 25.7445 24.0983 25.5624 23.2427 25.0339L18.6591 22.2009C18.4361 22.0631 18.2783 21.8441 18.2152 21.5841C18.1525 21.3246 18.1917 21.0551 18.3253 20.8255C18.4087 20.6819 18.5257 20.5688 18.6613 20.4852L18.66 20.4844C18.4369 20.3465 18.2792 20.1276 18.2163 19.8679C18.1532 19.6082 18.1924 19.3385 18.3261 19.1086C18.4123 18.9609 18.5304 18.8454 18.6652 18.7635C18.4695 18.6248 18.3286 18.4234 18.2706 18.1844C18.2074 17.9246 18.2466 17.655 18.3804 17.4254C18.514 17.1956 18.7267 17.0332 18.9787 16.9683C19.0575 16.948 19.1373 16.9379 19.2164 16.9379C19.3715 16.9381 19.5238 16.9787 19.6637 17.0541C19.6723 16.8674 19.7263 16.6839 19.8322 16.5266C20.1226 16.0949 20.7044 15.9754 21.1576 16.2555L24.911 18.5752L24.4272 17.6774C24.2416 17.3346 24.2484 16.9117 24.4452 16.5736C24.5411 16.4091 24.6781 16.2724 24.8419 16.1778C24.9765 16.101 25.1223 16.0646 25.2661 16.0646C25.575 16.0648 25.8749 16.2327 26.0346 16.5299C26.5912 17.5631 27.6414 19.5116 27.7153 19.6476C27.731 19.6711 27.7784 19.7412 27.8191 19.8008C27.8578 19.8574 27.8996 19.9114 27.9428 19.9652C28.88 21.1357 28.9931 22.6685 28.2375 23.9659L28.2375 23.9659ZM27.5438 20.3048C27.4923 20.2406 27.4417 20.175 27.3957 20.1074C27.2558 19.9028 27.2522 19.8975 27.2417 19.8439C27.0781 19.565 26.679 18.8248 25.582 16.7884C25.4858 16.6097 25.2671 16.5444 25.093 16.6436C25.0073 16.693 24.9384 16.7619 24.8882 16.8482C24.7865 17.0229 24.7826 17.2412 24.8787 17.4184L25.8308 19.1859C25.8876 19.2913 25.8687 19.4228 25.7846 19.5066C25.7007 19.5906 25.5724 19.6052 25.4717 19.5435L20.8914 16.7125C20.6755 16.5792 20.3909 16.6314 20.2575 16.83C20.1807 16.9441 20.1562 17.0803 20.1883 17.2133C20.2178 17.3348 20.2918 17.4373 20.3966 17.502C20.3969 17.5022 20.3971 17.5025 20.3974 17.5027L23.3921 19.3537C23.5146 19.4295 23.5543 19.593 23.4807 19.7194C23.4072 19.8454 23.2486 19.8866 23.1259 19.8107L19.4492 17.5382C19.3449 17.4738 19.2221 17.4548 19.1042 17.4853C18.986 17.5157 18.8865 17.5918 18.8238 17.6998C18.761 17.8074 18.7429 17.9337 18.772 18.0552C18.8015 18.1767 18.8755 18.2794 18.9801 18.3441L19.6956 18.7862L22.6566 20.6166C22.7791 20.6923 22.8188 20.8559 22.7452 20.9822C22.6717 21.1082 22.5131 21.1493 22.3903 21.0735L19.395 19.2219C19.1795 19.0884 18.899 19.1608 18.7694 19.3831C18.7066 19.4909 18.6884 19.6173 18.7176 19.7388C18.7471 19.8602 18.8211 19.9627 18.9259 20.0276L19.6603 20.4815L21.9212 21.8792C22.0437 21.9549 22.0834 22.1185 22.0098 22.2448C21.9363 22.3708 21.7777 22.4122 21.655 22.3361L19.394 20.9385C19.2897 20.8741 19.1674 20.855 19.0488 20.8856C18.9309 20.9159 18.8311 20.992 18.7684 21.0997C18.7058 21.2075 18.6875 21.334 18.7166 21.4553C18.7461 21.5768 18.8201 21.6793 18.9249 21.7442L23.5085 24.5771C24.2523 25.0369 25.1101 25.1961 25.9229 25.0252C26.7272 24.856 27.3917 24.3825 27.7937 23.692C28.4433 22.5769 28.3499 21.3106 27.5441 20.3048L27.5438 20.3048Z" fill="#103E13"/>
</svg>
