<svg width="34" height="34" viewBox="0 0 34 34" fill="none" xmlns="http://www.w3.org/2000/svg">
<g clip-path="url(#clip0_211_2056)">
<path d="M31.7849 9.70105C31.7849 9.72458 31.7849 9.754 31.7788 9.77166C31.7481 10.0011 31.7481 10.2306 31.7665 10.466C31.7788 10.5248 31.791 10.5837 31.8401 10.6308C31.9198 10.719 32.0424 10.7014 32.0915 10.5954C32.116 10.5425 32.116 10.4895 32.1037 10.4366C32.0424 10.213 32.0301 9.9776 32.024 9.74812C32.024 9.73635 32.024 9.7187 32.024 9.70105C32.0914 9.69516 32.1528 9.68928 32.2079 9.68928C32.2509 9.68339 32.2876 9.67751 32.3183 9.65985C32.4102 9.61278 32.4102 9.51275 32.3121 9.46568C32.2754 9.44802 32.2263 9.44214 32.1834 9.44214C32.0301 9.44802 31.8769 9.44802 31.7236 9.44802C31.6684 9.44802 31.6132 9.45391 31.558 9.45979C31.5274 9.46568 31.4906 9.46568 31.4661 9.48333C31.4232 9.50098 31.3987 9.5304 31.3987 9.57159C31.4048 9.61278 31.4232 9.63632 31.4661 9.65397C31.4906 9.67163 31.5213 9.67751 31.5519 9.67751C31.6255 9.68339 31.7052 9.69516 31.7849 9.70105ZM33.4709 9.97172C33.4709 9.9776 33.477 9.98349 33.477 9.98349C33.5015 10.1424 33.5261 10.2954 33.5444 10.4483C33.5506 10.5013 33.5567 10.5484 33.5935 10.5896C33.6732 10.6896 33.7958 10.6778 33.851 10.5719C33.8755 10.5189 33.8816 10.466 33.8694 10.4071C33.8326 10.2306 33.8142 10.0541 33.7774 9.88346C33.7529 9.77754 33.7223 9.67751 33.6916 9.58336C33.6732 9.52452 33.6303 9.48333 33.5567 9.47745C33.4832 9.46568 33.428 9.50098 33.3973 9.55394C33.3605 9.60101 33.3299 9.64809 33.3053 9.70105C33.2624 9.79519 33.2256 9.88934 33.1766 9.9776C33.1704 10.0011 33.1643 10.0188 33.1521 10.0364C33.146 10.0247 33.1398 10.0188 33.1398 10.0188C33.0601 9.87169 32.9865 9.72458 32.9069 9.58336C32.8946 9.57159 32.8884 9.55982 32.8823 9.54806C32.8455 9.4951 32.8026 9.46568 32.7352 9.46568C32.6739 9.47156 32.6248 9.50687 32.5942 9.55982C32.5819 9.58336 32.5819 9.60101 32.5758 9.62455C32.5512 9.81285 32.5206 10.0011 32.4961 10.1894C32.4838 10.2954 32.4777 10.4013 32.4777 10.5072C32.4716 10.5307 32.4777 10.5601 32.4899 10.5837C32.5022 10.6307 32.539 10.6602 32.588 10.6661C32.6493 10.6719 32.6922 10.6543 32.7107 10.6072C32.729 10.5719 32.7352 10.5425 32.7413 10.5131C32.7659 10.4071 32.7842 10.3071 32.8026 10.2071C32.8149 10.1482 32.821 10.1012 32.8394 10.0364C32.8517 10.06 32.8639 10.0776 32.8762 10.0953C32.9313 10.1659 32.9865 10.2365 33.054 10.2954C33.1214 10.3424 33.1766 10.3365 33.2318 10.2836C33.2441 10.2718 33.2502 10.2659 33.2624 10.2542C33.3176 10.1718 33.3851 10.0894 33.4402 10.007C33.4525 9.99525 33.4586 9.98349 33.4709 9.97172Z" fill="#3A3B7B"/>
<path d="M19.3447 9.81659C19.3021 9.92842 19.294 10.009 19.3136 10.0759C19.3354 10.167 19.3918 10.1968 19.4683 10.1737C20.1884 10.0027 21.7675 10.4879 22.3521 10.6231C22.49 10.6514 22.6022 10.4806 22.5081 10.3275C22.3708 10.1791 20.7924 9.54412 20.1902 9.5095C19.9541 9.4967 19.5321 9.4386 19.3447 9.81659Z" fill="#3A3B7B"/>
<path d="M25.516 7.76096C25.5928 7.80347 25.6357 7.84403 25.6568 7.88934C25.6884 7.94878 25.6717 7.9899 25.6187 8.01089C25.1427 8.23386 24.5093 9.1938 24.2536 9.52488C24.1917 9.60104 24.0487 9.55678 24.0271 9.43153C24.0315 9.28992 24.593 8.24817 24.9064 7.96443C25.0295 7.85365 25.233 7.63629 25.516 7.76096Z" fill="#3A3B7B"/>
<path d="M21.7252 7.28845C21.8174 7.22175 21.9132 7.19838 21.9622 7.24173C22.6804 7.83123 23.0612 8.76475 23.297 9.61937C23.3059 9.63928 23.3065 9.66785 23.2994 9.69766C23.2964 9.72314 23.277 9.75005 23.2462 9.77087C23.2133 9.79386 23.185 9.80086 23.1717 9.78105C22.8569 9.37014 21.0591 7.77136 21.7252 7.28845Z" fill="#3A3B7B"/>
<path d="M6.5167 17.5088C6.68883 17.3858 6.87596 17.2834 7.07398 17.204C7.28116 17.1471 7.50199 17.1565 7.7031 17.2309C7.90416 17.3052 8.0746 17.4403 8.18855 17.6158C8.29048 17.7909 8.33034 17.993 8.30221 18.1918C8.27407 18.3905 8.17943 18.575 8.03249 18.7176C7.9186 18.8333 7.78928 18.934 7.648 19.0172C7.01827 19.4076 6.38294 19.7767 5.74765 20.1671C5.61765 20.2649 5.47974 20.3525 5.33525 20.4292C5.11547 20.5344 4.86429 20.5626 4.62514 20.5089C4.386 20.4552 4.17394 20.3229 4.02563 20.1351C3.91476 20.002 3.82119 19.8566 3.74699 19.7018C3.14512 18.4877 2.52096 17.2788 1.94138 16.0433C1.67388 15.5084 1.45654 14.8933 1.24478 14.2996C1.15316 14.1271 1.13526 13.9271 1.19491 13.7422C1.25456 13.5572 1.38704 13.4018 1.56417 13.3092C1.74131 13.2165 1.94911 13.1938 2.1434 13.246C2.3377 13.2981 2.50314 13.4209 2.60455 13.5882C2.91626 13.9858 3.19218 14.4081 3.42933 14.8506C4.0312 15.9203 4.60521 16.99 5.18478 18.0277C5.21853 18.085 5.25574 18.1403 5.29624 18.1935C5.73247 18.0174 6.14277 17.7873 6.5167 17.5088Z" fill="#3A3B7B"/>
<path d="M12.7396 17.1357C11.3631 18.6815 9.05594 18.291 7.8968 16.3013C7.072 14.8893 6.92712 12.5572 8.72159 11.0864C9.10478 10.7784 9.56298 10.5686 10.0535 10.4766C10.6549 10.3938 11.2682 10.4957 11.8056 10.7675C12.3431 11.0394 12.7773 11.4674 13.0461 11.9903C14.0269 13.7019 13.8876 15.8841 12.7396 17.1357ZM12.1823 13.5307C12.0361 13.1101 11.7427 12.751 11.3519 12.5144C11.1308 12.3632 10.8622 12.2896 10.5912 12.3062C10.3202 12.3228 10.0634 12.4284 9.86401 12.6054C9.06711 13.2847 8.89989 14.8946 9.47947 15.8521C9.55336 16.0082 9.66183 16.1469 9.79741 16.2586C9.93299 16.3702 10.0924 16.4521 10.2644 16.4985C10.4363 16.5448 10.6168 16.5546 10.7931 16.527C10.9695 16.4994 11.1373 16.4352 11.2851 16.3388C11.7171 16.0173 12.034 15.5747 12.1918 15.0724C12.3496 14.5701 12.3405 14.0331 12.1656 13.5361L12.1823 13.5307Z" fill="#3A3B7B"/>
<path d="M18.3571 14.2046C18.2161 14.2337 18.0706 14.2354 17.9289 14.2097C17.7873 14.1839 17.6524 14.1313 17.5323 14.0548C17.4272 13.9971 17.3367 13.9178 17.2674 13.8225C17.198 13.7272 17.1516 13.6184 17.1314 13.5038C17.1111 13.3892 17.1176 13.2718 17.1502 13.1599C17.1829 13.048 17.2411 12.9445 17.3205 12.8567C17.4589 12.6803 17.6553 12.5541 17.8778 12.4984C18.4589 12.3365 19.0571 12.2378 19.6611 12.2042C19.7939 12.1894 19.9283 12.2001 20.0566 12.2359C20.1849 12.2717 20.3045 12.3316 20.4083 12.4124C20.5121 12.4931 20.5981 12.5929 20.6612 12.7059C20.7243 12.819 20.7632 12.943 20.7757 13.0707C20.9498 13.6978 20.9689 14.3554 20.8314 14.9909C20.3299 17.0447 18.6023 17.7508 16.6629 17.0929C16.1185 16.917 15.6412 16.5892 15.292 16.1515C14.8262 15.6244 14.496 14.9997 14.3279 14.3276C14.1917 13.7291 14.2066 13.1082 14.3714 12.5164C14.5362 11.9246 14.8461 11.3792 15.2753 10.9258C15.6825 10.433 16.2111 10.0452 16.8134 9.79726C17.194 9.59593 17.6393 9.53868 18.0617 9.6368C18.1575 9.66225 18.2445 9.71185 18.3136 9.78044C18.3828 9.84903 18.4315 9.93412 18.4548 10.0269C18.4781 10.1197 18.4752 10.2167 18.4462 10.308C18.4173 10.3993 18.3634 10.4815 18.2902 10.5461C18.151 10.667 17.9998 10.7745 17.8388 10.867C17.3433 11.1698 16.9122 11.56 16.5682 12.017C16.3427 12.3126 16.1874 12.6522 16.1133 13.0116C16.0391 13.3711 16.0479 13.7418 16.1391 14.0976C16.2655 14.5828 16.5459 15.0183 16.9416 15.3438C18.1676 16.4136 19.7614 15.3813 19.4828 13.9211C19.076 14.0174 18.7193 14.119 18.3571 14.2046Z" fill="#3A3B7B"/>
<path d="M25.847 17.2213C24.0359 18.2911 21.9739 17.2213 21.5225 14.9749C21.1937 13.3703 21.8179 11.1238 24.0025 10.268C24.4672 10.0899 24.9714 10.0273 25.4681 10.0862C26.0649 10.191 26.6123 10.473 27.0332 10.8924C27.4542 11.3117 27.7274 11.8473 27.8143 12.4236C28.1821 14.333 27.3461 16.3709 25.847 17.2213ZM26.4768 13.6217C26.4762 13.1773 26.3125 12.7474 26.0143 12.4075C25.8548 12.1973 25.6244 12.0467 25.3622 11.9813C25.1 11.916 24.8223 11.9399 24.5764 12.0492C23.5956 12.4556 22.9046 13.9319 23.1554 15.0177C23.1745 15.1881 23.2322 15.3524 23.3244 15.4992C23.4166 15.6459 23.5411 15.7716 23.6892 15.8674C23.8373 15.9631 24.0054 16.0267 24.1817 16.0537C24.3581 16.0805 24.5385 16.0702 24.7102 16.0232C25.2286 15.8494 25.6775 15.5246 25.9942 15.094C26.3109 14.6634 26.4797 14.1487 26.4768 13.6217Z" fill="#3A3B7B"/>
<path d="M29.6458 17.6706C29.6185 17.8664 29.5112 18.0437 29.3477 18.1636C29.1841 18.2834 28.9776 18.336 28.7737 18.3098C28.5697 18.2835 28.385 18.1806 28.2601 18.0236C28.1351 17.8666 28.0804 17.6685 28.1077 17.4727C28.1351 17.2769 28.2423 17.0996 28.4058 16.9797C28.5694 16.8599 28.7759 16.8073 28.9799 16.8335C29.1838 16.8598 29.3686 16.9627 29.4935 17.1197C29.6184 17.2767 29.6732 17.4749 29.6458 17.6706ZM29.161 10.4552C29.267 10.2998 29.4224 10.1815 29.6042 10.1179C29.786 10.0543 29.9844 10.0488 30.1697 10.1022C30.3581 10.1474 30.5245 10.2534 30.6412 10.4024C30.7578 10.5514 30.8176 10.7343 30.8106 10.9205C30.786 11.2193 30.7394 11.516 30.6712 11.8084C30.4873 12.7979 30.309 13.7874 30.114 14.7663C30.0248 15.1567 29.9078 15.5311 29.7796 15.9269C29.735 16.0506 29.6605 16.1624 29.5622 16.2532C29.5011 16.3215 29.4231 16.3738 29.3354 16.4054C29.2476 16.4371 29.153 16.4469 29.0602 16.4341C28.9674 16.4213 28.8795 16.3863 28.8045 16.3322C28.7296 16.2781 28.6701 16.2068 28.6316 16.1248C28.5653 15.9777 28.5293 15.8197 28.5257 15.6595C28.5257 14.9962 28.5257 14.3277 28.5703 13.6591C28.646 12.7049 28.795 11.7574 29.0161 10.8243C29.0421 10.6992 29.0911 10.5797 29.161 10.4712V10.4552Z" fill="#3A3B7B"/>
<path fill-rule="evenodd" clip-rule="evenodd" d="M4.16219 21.9687C4.09639 22.1097 4.07834 22.2668 4.1105 22.4181C4.13189 22.6175 4.17887 22.8136 4.25038 23.002C4.33966 23.2326 4.43955 23.4607 4.56273 23.7419C4.59106 23.8066 4.62066 23.8741 4.65164 23.9452C4.81775 24.326 5.02617 24.8128 5.30418 25.5172C5.38287 25.7174 5.45275 25.9191 5.52311 26.1223C5.55154 26.2043 5.58006 26.2867 5.60926 26.3692C5.71393 26.6627 5.89404 26.9263 6.13276 27.1352C6.23414 27.25 6.3686 27.3337 6.51937 27.3755C6.67308 27.4182 6.83656 27.4155 6.98864 27.3678C7.14072 27.32 7.27429 27.2295 7.37202 27.1079C7.46783 26.9886 7.5248 26.8449 7.53588 26.6948C7.59803 26.4024 7.57682 26.0992 7.47437 25.8173C7.31178 25.3492 7.12656 24.8804 6.91298 24.4219L6.912 24.4199C6.56063 23.7026 6.20348 22.9902 5.82942 22.2775L5.82662 22.2725C5.71712 22.0869 5.57481 21.9209 5.40609 21.782C5.29656 21.6581 5.14548 21.5745 4.97863 21.5457C4.80823 21.5163 4.63248 21.546 4.48277 21.6294C4.34114 21.707 4.22887 21.8258 4.16219 21.9687Z" fill="#3A3B7B"/>
<path fill-rule="evenodd" clip-rule="evenodd" d="M9.52871 20.2023C8.97778 20.0654 8.40242 20.0454 7.8427 20.1439C7.40918 20.1849 6.98281 20.2808 6.68673 20.471C6.53615 20.5677 6.4144 20.6919 6.34668 20.8499C6.27859 21.0086 6.26989 21.1902 6.3257 21.3925C6.42758 21.7631 6.55989 22.1235 6.69173 22.4826L6.71309 22.5408L6.71361 22.5421C7.11058 23.5855 7.51135 24.6254 7.91575 25.6617C7.96291 25.8251 8.0296 25.9826 8.11447 26.1312L8.11606 26.134C8.22818 26.3186 8.37199 26.4837 8.54141 26.6224C8.62614 26.6986 8.73092 26.7514 8.84454 26.775C8.95928 26.7987 9.07859 26.7918 9.1895 26.755C9.30045 26.7181 9.39869 26.6527 9.47356 26.5659C9.54722 26.4806 9.59545 26.3777 9.61316 26.2682C9.68626 25.9709 9.66284 25.6591 9.546 25.3749C9.50955 25.2792 9.48094 25.1815 9.4508 25.0785C9.44075 25.0442 9.43056 25.0093 9.41981 24.9738C10.3455 24.6265 11.3305 24.1595 11.6768 23.0731C11.8125 22.6977 11.8238 22.2912 11.7092 21.9093C11.5945 21.527 11.3592 21.1882 11.0357 20.9394C10.5954 20.5912 10.081 20.3396 9.52871 20.2023ZM8.00161 21.5348C8.01983 21.5298 8.0382 21.5251 8.05662 21.5208C8.65928 21.4298 9.27587 21.551 9.79286 21.8619C10.0207 22.0139 10.114 22.1829 10.1301 22.3455C10.1466 22.5129 10.0832 22.6943 9.95578 22.8687C9.71505 23.1981 9.27573 23.4617 8.87889 23.5109C8.58959 22.8714 8.29581 22.2061 8.00161 21.5348Z" fill="#3A3B7B"/>
<path d="M13.2016 19.0319C13.8577 18.741 14.6704 18.6908 15.3064 18.8953C15.4665 18.9401 15.6055 19.0369 15.6995 19.1693C15.7928 19.3008 15.8359 19.4593 15.8215 19.6178C15.8206 19.7206 15.7943 19.8218 15.7448 19.9131C15.6944 20.0061 15.6215 20.086 15.5321 20.1462C15.4427 20.2063 15.3396 20.245 15.2314 20.2588C15.1232 20.2727 15.0131 20.2613 14.9104 20.2256L14.9026 20.2229L14.8953 20.2192C14.8427 20.1928 14.7869 20.173 14.7292 20.16L14.7256 20.1592C14.2782 20.0452 13.8562 20.2342 13.7021 20.4663C13.6286 20.5771 13.6195 20.6888 13.6807 20.7905C13.7463 20.8993 13.9071 21.0215 14.2325 21.1086C14.322 21.1322 14.4137 21.1549 14.5068 21.178C14.7641 21.242 15.0316 21.3084 15.2901 21.4005L15.2911 21.4009C16.4841 21.8365 16.9283 22.7388 16.7763 23.5874C16.6258 24.4267 15.8956 25.1904 14.7974 25.3706C14.3978 25.4556 13.982 25.439 13.591 25.3226C13.1991 25.2057 12.8458 24.9925 12.5663 24.704L12.559 24.6965C12.4707 24.5878 12.4114 24.4602 12.3851 24.3247C12.3609 24.2024 12.3736 24.0761 12.4218 23.9605C12.4696 23.8456 12.5506 23.7462 12.655 23.6738C12.7654 23.5916 12.8984 23.5424 13.0376 23.5321C13.1764 23.5219 13.3152 23.5508 13.4371 23.6153C13.5588 23.6717 13.672 23.7437 13.7736 23.8293L13.7755 23.8309C13.9552 23.9887 14.1727 24.0298 14.3812 23.9917C14.5928 23.9531 14.7917 23.8329 14.9197 23.6735C15.0468 23.5151 15.0979 23.3269 15.0373 23.1442C14.9764 22.9602 14.7931 22.754 14.3905 22.5817C14.2852 22.5388 14.1761 22.5042 14.0626 22.4705C14.032 22.4614 14.0008 22.4524 13.9693 22.4432C13.8854 22.4187 13.799 22.3936 13.7143 22.3658C13.656 22.3467 13.5982 22.3286 13.5409 22.3107C13.3842 22.2618 13.2316 22.214 13.0846 22.15C12.7648 22.0455 12.4885 21.8449 12.2968 21.5777C12.1044 21.3095 12.0075 20.9888 12.0207 20.6634C12.0217 19.8705 12.5421 19.3243 13.2016 19.0319Z" fill="#3A3B7B"/>
<path d="M21.5194 18.9475C21.3922 18.8878 21.2515 18.8595 21.1101 18.8651C20.9687 18.8707 20.8309 18.9099 20.7092 18.9794C20.5883 19.0484 20.4871 19.1451 20.4145 19.2607C20.348 19.3581 20.302 19.467 20.2791 19.5814C20.2561 19.6957 20.2567 19.8131 20.2806 19.9271C20.3043 20.0737 20.3306 20.2162 20.3565 20.3567C20.3995 20.5892 20.4413 20.8165 20.4689 21.0483L20.4699 21.0542C20.5326 21.4177 20.5655 21.7853 20.5684 22.1537L20.5687 22.1589C20.5902 22.5568 20.4489 22.9469 20.1753 23.2464L20.171 23.2518C20.0819 23.3613 19.9629 23.4449 19.8271 23.4932C19.6914 23.5415 19.5444 23.5526 19.4024 23.5252C19.2605 23.4979 19.1293 23.4332 19.0235 23.3384C18.9177 23.2435 18.8414 23.122 18.8033 22.988C18.722 22.7055 18.6749 22.415 18.6629 22.1222L18.8018 19.9997C18.8039 19.972 18.8062 19.9436 18.8086 19.9149C18.8139 19.8504 18.8193 19.7848 18.8215 19.7235C18.8248 19.6334 18.822 19.5407 18.8001 19.453C18.7778 19.3634 18.7352 19.2781 18.6597 19.2055C18.5849 19.1336 18.4839 19.0805 18.3569 19.0444C18.1272 18.9806 17.933 18.9826 17.7711 19.0486C17.6092 19.1145 17.4982 19.2369 17.4197 19.3783C17.3418 19.5185 17.2917 19.6845 17.2539 19.8507C17.2258 19.9741 17.2032 20.1036 17.1818 20.2269C17.1743 20.2694 17.1671 20.3111 17.1598 20.3516L17.1596 20.3528C17.0448 21.0288 17.0106 21.7152 17.0577 22.3987C17.0665 22.7681 17.1468 23.1327 17.2944 23.4739C17.4611 23.9141 17.7628 24.2955 18.16 24.5678C18.5579 24.8406 19.0328 24.991 19.5217 24.9989C20.0107 25.0068 20.4906 24.872 20.898 24.6123C21.3047 24.353 21.6199 23.9813 21.8019 23.5464C22.0564 22.9924 22.176 22.39 22.1513 21.7849C22.1364 21.3432 22.1113 20.8981 22.0864 20.4553C22.0741 20.238 22.0619 20.0213 22.051 19.8058C22.0455 19.5898 21.9713 19.3805 21.8383 19.2062C21.756 19.0959 21.6464 19.007 21.5194 18.9475Z" fill="#3A3B7B"/>
<path d="M26.0221 22.2754C26.0092 22.2912 25.9956 22.3074 25.9814 22.3244C25.8779 21.7515 25.782 21.1787 25.6859 20.6051C25.6515 20.3993 25.6169 20.1926 25.582 19.9866L25.5781 19.9636L25.5654 19.9437C25.5414 19.9063 25.539 19.8697 25.539 19.7915V19.7825L25.5376 19.7735C25.5116 19.6121 25.4355 19.4618 25.3193 19.3424C25.2034 19.2234 25.0528 19.1405 24.8873 19.1046C24.722 19.0654 24.5482 19.0741 24.388 19.1294C24.2281 19.1846 24.0888 19.2838 23.9874 19.4145C23.9031 19.5148 23.834 19.6261 23.7822 19.7451C23.6646 20.0012 23.5461 20.2581 23.4272 20.5156L23.4251 20.52C23.1283 21.1629 22.8295 21.8101 22.5393 22.4624L22.5384 22.4645C22.3603 22.8874 22.2133 23.3331 22.0668 23.7774C22.0375 23.866 22.0083 23.9547 21.9788 24.0431C21.9259 24.1833 21.9027 24.3322 21.9107 24.4811C21.9011 24.6143 21.9343 24.7473 22.006 24.8619C22.0791 24.9789 22.1886 25.071 22.319 25.1251C22.4573 25.1833 22.6118 25.1957 22.7582 25.1602C22.9043 25.1249 23.0341 25.0439 23.127 24.9302C23.2457 24.79 23.3479 24.6371 23.4312 24.4752C23.6769 23.9927 23.9118 23.5042 24.1457 23.0179C24.2361 22.8298 24.324 22.6614 24.4241 22.4779C24.4309 22.5005 24.4379 22.5226 24.4452 22.5447C24.55 22.9877 24.727 23.4119 24.9695 23.802C25.0154 23.8846 25.0793 23.9568 25.1569 24.0137C25.2354 24.0712 25.326 24.1116 25.4224 24.1321C25.5189 24.1526 25.6188 24.1527 25.7152 24.1324C25.8116 24.1121 25.9025 24.0717 25.981 24.0144L26.1365 23.9027L27.3434 22.927L27.272 23.3635C27.1741 23.9636 27.0768 24.5586 26.9736 25.1538C26.906 25.4176 26.9061 25.6931 26.9738 25.9568C27.0032 26.1052 27.078 26.2418 27.1886 26.3493C27.3002 26.4576 27.4432 26.5312 27.5989 26.5605C27.7546 26.5899 27.9159 26.5736 28.0619 26.5138C28.2058 26.455 28.3281 26.3565 28.4136 26.2311C28.6126 25.9941 28.7365 25.7072 28.7705 25.4046C28.8217 24.9772 28.8796 24.544 28.9375 24.1109C29.0042 23.6117 29.0709 23.1126 29.1272 22.6232L29.1274 22.6217C29.1816 22.0859 29.2078 21.5479 29.206 21.0095C29.2179 20.8394 29.1738 20.6699 29.0797 20.5251C28.9854 20.3798 28.8456 20.2668 28.6805 20.2021C28.5087 20.1272 28.3163 20.1071 28.1318 20.145C27.9484 20.1826 27.7825 20.2754 27.658 20.4098C27.4354 20.6074 27.2265 20.8188 27.0328 21.0427L27.0315 21.0443C26.82 21.2972 26.61 21.5551 26.4013 21.8113C26.2744 21.967 26.1479 22.1224 26.0221 22.2754Z" fill="#3A3B7B"/>
</g>
<defs>
<clipPath id="clip0_211_2056">
<rect width="32.7153" height="20.186" fill="white" transform="translate(1.16028 7.21973)"/>
</clipPath>
</defs>
</svg>
