<svg width="34" height="34" viewBox="0 0 34 34" fill="none" xmlns="http://www.w3.org/2000/svg">
<g clip-path="url(#clip0_211_2049)">
<path fill-rule="evenodd" clip-rule="evenodd" d="M10.0458 10.0838L3.09497 16.9647C4.48526 18.341 6.07345 19.501 7.80502 20.4084C8.28364 21.6653 9.03386 22.8439 10.0557 23.8554C13.9 27.6611 20.1328 27.6611 23.9771 23.8554C24.9989 22.8439 25.7491 21.6653 26.2277 20.4084C27.9593 19.501 29.5475 18.341 30.9377 16.9647L23.9926 10.0894C23.9874 10.0842 23.9823 10.0791 23.9771 10.074C20.1328 6.26832 13.9 6.26832 10.0557 10.074C10.0524 10.0772 10.0491 10.0805 10.0458 10.0838ZM23.312 21.6499C21.2864 22.3266 19.16 22.6732 17.0164 22.6732C14.8727 22.6732 12.7464 22.3266 10.7208 21.6499C10.9403 21.9381 11.1826 22.2147 11.4478 22.4773C14.5232 25.5218 19.5095 25.5218 22.5849 22.4773C22.8501 22.2147 23.0925 21.9381 23.312 21.6499ZM11.5906 11.3143C12.1128 11.6559 12.6682 11.9481 13.2492 12.1864C14.4435 12.6762 15.7236 12.9282 17.0164 12.9282C18.3091 12.9282 19.5892 12.6762 20.7835 12.1864C21.3646 11.9481 21.9199 11.6558 22.4422 11.3143C19.4051 8.45353 14.6276 8.45354 11.5906 11.3143Z" fill="#3B4158"/>
</g>
<defs>
<clipPath id="clip0_211_2049">
<rect width="27.8428" height="19.4899" fill="white" transform="translate(3.09497 7.21973)"/>
</clipPath>
</defs>
</svg>
