<svg width="34" height="34" viewBox="0 0 34 34" fill="none" xmlns="http://www.w3.org/2000/svg">
<g clip-path="url(#clip0_211_2072)">
<path d="M30.0804 8.5032C30.0804 8.82756 30.3466 9.09051 30.675 9.09051H31.2696C31.598 9.09051 31.8641 8.82756 31.8641 8.5032C31.8641 8.17884 31.598 7.91589 31.2696 7.91589H30.675C30.3466 7.91589 30.0804 8.17884 30.0804 8.5032Z" fill="#212326"/>
<path d="M12.8383 26.7098H15.7265L14.8857 25.8792C14.6627 25.6589 14.3602 25.5352 14.0449 25.5352H12.8383C8.24113 25.5352 4.51444 21.8539 4.51444 17.3128C4.51444 12.7718 8.24113 9.09052 12.8383 9.09051H22.3512C26.9483 9.09051 30.675 12.7718 30.675 17.3128C30.675 21.8539 26.9483 25.5352 22.3512 25.5352H18.7926C18.3195 25.5352 17.8659 25.3495 17.5313 25.0191L16.5463 24.046C15.9888 23.4953 15.2326 23.1859 14.4441 23.1859H12.8383C9.55459 23.1859 6.89267 20.5565 6.89267 17.3128C6.89267 14.0692 9.55459 11.4397 12.8383 11.4397H22.3512C25.6349 11.4397 28.2968 14.0692 28.2968 17.3128C28.2968 20.5565 25.6349 23.1859 22.3512 23.1859H20.0663C19.5932 23.1859 19.1395 23.0003 18.805 22.6699L17.8199 21.6968C17.2624 21.1461 16.5062 20.8367 15.7178 20.8367H12.8383C10.8681 20.8367 9.27091 19.259 9.27091 17.3128C9.27091 15.3667 10.8681 13.789 12.8383 13.789H22.3512C24.3214 13.789 25.9186 15.3667 25.9186 17.3128C25.9186 19.2353 24.3601 20.7982 22.4231 20.836L22.4228 20.8367H21.5527C21.0796 20.8367 20.6259 20.651 20.2914 20.3206L19.3063 19.3476C18.8488 18.8957 18.2577 18.6063 17.6246 18.517L17.5947 18.4874H12.8383C12.1815 18.4874 11.6491 17.9615 11.6491 17.3128C11.6491 16.6641 12.1815 16.1382 12.8383 16.1382H22.3512C23.0079 16.1382 23.5403 16.6641 23.5403 17.3128C23.5403 17.9615 23.0079 18.4874 22.3512 18.4874H19.973L20.8138 19.318C21.0368 19.5383 21.3393 19.6621 21.6546 19.6621H22.3512C23.6647 19.6621 24.7295 18.6103 24.7295 17.3128C24.7295 16.0154 23.6647 14.9636 22.3512 14.9636H12.8383C11.5248 14.9636 10.46 16.0154 10.46 17.3128C10.46 18.6103 11.5248 19.6621 12.8383 19.6621H17.2042C17.6773 19.6621 18.1309 19.8477 18.4655 20.1781L19.4506 21.1512C20.0081 21.7019 20.7642 22.0113 21.5527 22.0113H22.6485V22.0023C25.1369 21.8507 27.1077 19.8091 27.1077 17.3128C27.1077 14.718 24.9781 12.6144 22.3512 12.6144H12.8383C10.2114 12.6144 8.08179 14.718 8.08179 17.3128C8.08179 19.9077 10.2114 22.0113 12.8383 22.0113H15.7178C16.1909 22.0113 16.6445 22.1969 16.9791 22.5273L17.9642 23.5004C18.5217 24.0511 19.2778 24.3605 20.0663 24.3605H22.3512C26.2916 24.3605 29.4859 21.2052 29.4859 17.3128C29.4859 13.4205 26.2916 10.2651 22.3512 10.2651H12.8383C8.89786 10.2651 5.70355 13.4205 5.70355 17.3128C5.70355 21.2052 8.89786 24.3605 12.8383 24.3605H14.4441C14.9172 24.3605 15.3709 24.5462 15.7054 24.8766L16.6905 25.8497C17.248 26.4004 18.0042 26.7098 18.7926 26.7098H22.3512C27.6051 26.7098 31.8642 22.5026 31.8642 17.3128C31.8642 12.123 27.6051 7.91589 22.3512 7.91589L12.8383 7.9159C7.58441 7.9159 3.32532 12.123 3.32532 17.3128C3.32532 22.5026 7.58441 26.7098 12.8383 26.7098Z" fill="#212326"/>
</g>
<defs>
<clipPath id="clip0_211_2072">
<rect width="28.5388" height="18.7939" fill="white" transform="translate(3.32532 7.91589)"/>
</clipPath>
</defs>
</svg>
